<svg xmlns="http://www.w3.org/2000/svg" viewBox="0 0 490 240" width="490" height="240" role="img">
<defs>
<linearGradient id="bg" x1="0" y1="0" x2="0" y2="1"><stop offset="0" stop-color="#0c0f1d"/><stop offset="1" stop-color="#171a31"/></linearGradient>
<linearGradient id="card" x1="0" y1="0" x2="1" y2="1"><stop offset="0" stop-color="#161a2e"/><stop offset="1" stop-color="#1d2040"/></linearGradient>
<linearGradient id="sky" x1="0" y1="0" x2="0" y2="1"><stop offset="0" stop-color="#1b1745"/><stop offset="0.6" stop-color="#4a2f6e"/><stop offset="1" stop-color="#8a4f85"/></linearGradient>
<radialGradient id="warm"><stop offset="0" stop-color="#ffd9a8" stop-opacity=".55"/><stop offset="1" stop-color="#ffd9a8" stop-opacity="0"/></radialGradient>
<radialGradient id="pinkglow"><stop offset="0" stop-color="#e8a3c0" stop-opacity=".35"/><stop offset="1" stop-color="#e8a3c0" stop-opacity="0"/></radialGradient>
<radialGradient id="lavglow"><stop offset="0" stop-color="#b9a4e6" stop-opacity=".35"/><stop offset="1" stop-color="#b9a4e6" stop-opacity="0"/></radialGradient>
<filter id="soft" x="-20%" y="-20%" width="140%" height="140%"><feGaussianBlur stdDeviation="1.2"/></filter>
<filter id="shadow" x="-10%" y="-10%" width="120%" height="130%"><feDropShadow dx="0" dy="6" stdDeviation="8" flood-color="#000" flood-opacity=".35"/></filter>
</defs>
<rect x="1.5" y="1.5" width="487" height="237" rx="22" fill="url(#card)" stroke="#3b3566" stroke-width="1.4"/><rect x="3" y="3" width="484" height="234" rx="20" fill="none" stroke="#f6cfdc" stroke-opacity=".06"/><clipPath id="cc"><rect x="1.5" y="1.5" width="487" height="237" rx="22"/></clipPath><circle clip-path="url(#cc)" cx="430" cy="30" r="160" fill="url(#lavglow)"/><g transform="translate(36.0 36.0) rotate(10)"><path transform="rotate(0)" d="M0 0 C-6.8 -4.4 -6.1 -11.6 0 -11.0 C6.1 -11.6 6.8 -4.4 0 0Z" fill="#e8a3c0" opacity="0.95" stroke="#f6cfdc" stroke-opacity=".35" stroke-width=".6"/><path transform="rotate(72)" d="M0 0 C-6.8 -4.4 -6.1 -11.6 0 -11.0 C6.1 -11.6 6.8 -4.4 0 0Z" fill="#e8a3c0" opacity="0.95" stroke="#f6cfdc" stroke-opacity=".35" stroke-width=".6"/><path transform="rotate(144)" d="M0 0 C-6.8 -4.4 -6.1 -11.6 0 -11.0 C6.1 -11.6 6.8 -4.4 0 0Z" fill="#e8a3c0" opacity="0.95" stroke="#f6cfdc" stroke-opacity=".35" stroke-width=".6"/><path transform="rotate(216)" d="M0 0 C-6.8 -4.4 -6.1 -11.6 0 -11.0 C6.1 -11.6 6.8 -4.4 0 0Z" fill="#e8a3c0" opacity="0.95" stroke="#f6cfdc" stroke-opacity=".35" stroke-width=".6"/><path transform="rotate(288)" d="M0 0 C-6.8 -4.4 -6.1 -11.6 0 -11.0 C6.1 -11.6 6.8 -4.4 0 0Z" fill="#e8a3c0" opacity="0.95" stroke="#f6cfdc" stroke-opacity=".35" stroke-width=".6"/><circle r="1.8" fill="#d96a98"/><circle cx="3.1" cy="0.0" r="0.8" fill="#fff1b8"/><circle cx="0.8" cy="3.0" r="0.8" fill="#fff1b8"/><circle cx="-2.6" cy="1.6" r="0.8" fill="#fff1b8"/><circle cx="-2.2" cy="-2.1" r="0.8" fill="#fff1b8"/><circle cx="1.4" cy="-2.7" r="0.8" fill="#fff1b8"/></g><text x="58" y="44" font-family="'Segoe Print','Bradley Hand','Chalkboard SE','Marker Felt','Comic Sans MS','Comic Neue',cursive" font-size="21" fill="#f3e9dc" text-anchor="start" font-weight="600" textLength="200" lengthAdjust="spacingAndGlyphs">currently poking at</text><rect x="28" y="76" width="65" height="28" rx="14.0" fill="#e8a3c0" fill-opacity=".14" stroke="#e8a3c0" stroke-opacity=".55"/><text x="60" y="94.55" font-family="'Segoe UI','Helvetica Neue',Helvetica,Arial,sans-serif" font-size="13" fill="#f3e9dc" text-anchor="middle" >Linux</text><rect x="103.0" y="76" width="112" height="28" rx="14.0" fill="#b9a4e6" fill-opacity=".14" stroke="#b9a4e6" stroke-opacity=".55"/><text x="159" y="94.55" font-family="'Segoe UI','Helvetica Neue',Helvetica,Arial,sans-serif" font-size="13" fill="#f3e9dc" text-anchor="middle" >Open Source</text><rect x="224.8" y="76" width="88" height="28" rx="14.0" fill="#f6cfdc" fill-opacity=".14" stroke="#f6cfdc" stroke-opacity=".55"/><text x="269" y="94.55" font-family="'Segoe UI','Helvetica Neue',Helvetica,Arial,sans-serif" font-size="13" fill="#f3e9dc" text-anchor="middle" >Game Dev</text><rect x="323.20000000000005" y="76" width="81" height="28" rx="14.0" fill="#a9c4ec" fill-opacity=".14" stroke="#a9c4ec" stroke-opacity=".55"/><text x="364" y="94.55" font-family="'Segoe UI','Helvetica Neue',Helvetica,Arial,sans-serif" font-size="13" fill="#f3e9dc" text-anchor="middle" >AI + ML</text><rect x="28" y="116" width="120" height="28" rx="14.0" fill="#c47a9b" fill-opacity=".14" stroke="#c47a9b" stroke-opacity=".55"/><text x="88" y="134.55" font-family="'Segoe UI','Helvetica Neue',Helvetica,Arial,sans-serif" font-size="13" fill="#f3e9dc" text-anchor="middle" >Better UI/UX</text><rect x="157.6" y="116" width="57" height="28" rx="14.0" fill="#e8a3c0" fill-opacity=".14" stroke="#e8a3c0" stroke-opacity=".55"/><text x="186" y="134.55" font-family="'Segoe UI','Helvetica Neue',Helvetica,Arial,sans-serif" font-size="13" fill="#f3e9dc" text-anchor="middle" >Rust</text><text x="28" y="210" font-family="'Segoe Print','Bradley Hand','Chalkboard SE','Marker Felt','Comic Sans MS','Comic Neue',cursive" font-size="16" fill="#b9a4e6" text-anchor="start" textLength="168" lengthAdjust="spacingAndGlyphs" font-style="italic">slowly... but surely.</text><path transform="translate(214.0 205) scale(0.9)" d="M0 8 C-12 -2 -6 -10 0 -4 C6 -10 12 -2 0 8Z" fill="none" stroke="#b9a4e6" stroke-width="1.6" stroke-linejoin="round"/><text x="340" y="222" font-family="'Segoe Print','Bradley Hand','Chalkboard SE','Marker Felt','Comic Sans MS','Comic Neue',cursive" font-size="11" fill="#b9bccf" text-anchor="start" textLength="104" lengthAdjust="spacingAndGlyphs" opacity=".6">(ask me about tabs)</text><path transform="translate(456.0 36.0) scale(1.00)" d="M0 -6 Q0 0 6 0 Q0 0 0 6 Q0 0 -6 0 Q0 0 0 -6Z" fill="#f3e9dc" opacity="0.9"/><path transform="translate(420.0 200.0) scale(0.67)" d="M0 -6 Q0 0 6 0 Q0 0 0 6 Q0 0 -6 0 Q0 0 0 -6Z" fill="#e8a3c0" opacity="0.9"/>
</svg>
