<svg xmlns="http://www.w3.org/2000/svg" viewBox="0 0 235 350" width="235" height="350" role="img">
<defs>
<linearGradient id="bg" x1="0" y1="0" x2="0" y2="1"><stop offset="0" stop-color="#0c0f1d"/><stop offset="1" stop-color="#171a31"/></linearGradient>
<linearGradient id="card" x1="0" y1="0" x2="1" y2="1"><stop offset="0" stop-color="#161a2e"/><stop offset="1" stop-color="#1d2040"/></linearGradient>
<linearGradient id="sky" x1="0" y1="0" x2="0" y2="1"><stop offset="0" stop-color="#1b1745"/><stop offset="0.6" stop-color="#4a2f6e"/><stop offset="1" stop-color="#8a4f85"/></linearGradient>
<radialGradient id="warm"><stop offset="0" stop-color="#ffd9a8" stop-opacity=".55"/><stop offset="1" stop-color="#ffd9a8" stop-opacity="0"/></radialGradient>
<radialGradient id="pinkglow"><stop offset="0" stop-color="#e8a3c0" stop-opacity=".35"/><stop offset="1" stop-color="#e8a3c0" stop-opacity="0"/></radialGradient>
<radialGradient id="lavglow"><stop offset="0" stop-color="#b9a4e6" stop-opacity=".35"/><stop offset="1" stop-color="#b9a4e6" stop-opacity="0"/></radialGradient>
<filter id="soft" x="-20%" y="-20%" width="140%" height="140%"><feGaussianBlur stdDeviation="1.2"/></filter>
<filter id="shadow" x="-10%" y="-10%" width="120%" height="130%"><feDropShadow dx="0" dy="6" stdDeviation="8" flood-color="#000" flood-opacity=".35"/></filter>
<clipPath id="art0"><rect x="12" y="12" width="211" height="140" rx="14"/></clipPath></defs>
<rect x="1.5" y="1.5" width="232" height="347" rx="20" fill="url(#card)" stroke="#3b3566" stroke-width="1.4"/><rect x="3" y="3" width="229" height="344" rx="18" fill="none" stroke="#f6cfdc" stroke-opacity=".06"/><g clip-path="url(#art0)"><g transform="translate(12 12)"><rect width="211" height="140" fill="url(#sky)"/><ellipse cx="105.5" cy="70.0" rx="90" ry="60" fill="url(#pinkglow)"/><circle cx="97.7" cy="52.3" r="1" fill="#f3e9dc" opacity="0.35237972495413583"/><circle cx="71.4" cy="64.9" r="0.8" fill="#f3e9dc" opacity="0.43371320482230746"/><circle cx="147.7" cy="101.9" r="1" fill="#f3e9dc" opacity="0.6369142157615608"/><circle cx="153.0" cy="22.0" r="1" fill="#f3e9dc" opacity="0.27823371336624875"/><circle cx="183.9" cy="138.7" r="0.8" fill="#f3e9dc" opacity="0.6758152069795311"/><circle cx="157.4" cy="14.2" r="1.4" fill="#f3e9dc" opacity="0.36272806615255626"/><circle cx="167.3" cy="124.5" r="1.4" fill="#f3e9dc" opacity="0.7512586035984723"/><circle cx="72.1" cy="6.0" r="0.8" fill="#f3e9dc" opacity="0.7336552536200973"/><path transform="translate(72.1 6.0) scale(0.86)" d="M0 -6 Q0 0 6 0 Q0 0 0 6 Q0 0 -6 0 Q0 0 0 -6Z" fill="#f3e9dc" opacity="0.8"/><circle cx="103.8" cy="3.3" r="1.8" fill="#f3e9dc" opacity="0.6549284793326694"/><circle cx="203.4" cy="0.5" r="1" fill="#f3e9dc" opacity="0.7424168971829713"/><circle cx="1.7" cy="11.7" r="0.8" fill="#f3e9dc" opacity="0.525441864107997"/><circle cx="113.4" cy="27.7" r="0.8" fill="#f3e9dc" opacity="0.4689741518772428"/><circle cx="19.7" cy="81.2" r="1" fill="#f3e9dc" opacity="0.7668435054636642"/><circle cx="8.7" cy="37.8" r="1" fill="#f3e9dc" opacity="0.6598323575971335"/><path d="M99.5 140 Q95.5 100.0 125.5 60.0 M125.5 60.0 Q155.5 40.0 185.5 46.0 M113.5 84.0 Q75.5 70.0 35.5 56.0" stroke="#4a3358" stroke-width="6" fill="none" stroke-linecap="round"/><g transform="translate(43.7 81.0) rotate(68)"><path transform="rotate(0)" d="M0 0 C-6.4 -4.1 -5.6 -10.8 0 -10.3 C5.6 -10.8 6.4 -4.1 0 0Z" fill="#f6cfdc" opacity="0.95" stroke="#f6cfdc" stroke-opacity=".35" stroke-width=".6"/><path transform="rotate(72)" d="M0 0 C-6.4 -4.1 -5.6 -10.8 0 -10.3 C5.6 -10.8 6.4 -4.1 0 0Z" fill="#f6cfdc" opacity="0.95" stroke="#f6cfdc" stroke-opacity=".35" stroke-width=".6"/><path transform="rotate(144)" d="M0 0 C-6.4 -4.1 -5.6 -10.8 0 -10.3 C5.6 -10.8 6.4 -4.1 0 0Z" fill="#f6cfdc" opacity="0.95" stroke="#f6cfdc" stroke-opacity=".35" stroke-width=".6"/><path transform="rotate(216)" d="M0 0 C-6.4 -4.1 -5.6 -10.8 0 -10.3 C5.6 -10.8 6.4 -4.1 0 0Z" fill="#f6cfdc" opacity="0.95" stroke="#f6cfdc" stroke-opacity=".35" stroke-width=".6"/><path transform="rotate(288)" d="M0 0 C-6.4 -4.1 -5.6 -10.8 0 -10.3 C5.6 -10.8 6.4 -4.1 0 0Z" fill="#f6cfdc" opacity="0.95" stroke="#f6cfdc" stroke-opacity=".35" stroke-width=".6"/><circle r="1.6" fill="#d96a98"/><circle cx="2.9" cy="0.0" r="0.7" fill="#fff1b8"/><circle cx="0.8" cy="2.8" r="0.7" fill="#fff1b8"/><circle cx="-2.5" cy="1.5" r="0.7" fill="#fff1b8"/><circle cx="-2.1" cy="-2.0" r="0.7" fill="#fff1b8"/><circle cx="1.3" cy="-2.5" r="0.7" fill="#fff1b8"/></g><g transform="translate(150.5 46.4) rotate(32)"><path transform="rotate(0)" d="M0 0 C-4.6 -2.9 -4.0 -7.7 0 -7.4 C4.0 -7.7 4.6 -2.9 0 0Z" fill="#f6cfdc" opacity="0.95" stroke="#f6cfdc" stroke-opacity=".35" stroke-width=".6"/><path transform="rotate(72)" d="M0 0 C-4.6 -2.9 -4.0 -7.7 0 -7.4 C4.0 -7.7 4.6 -2.9 0 0Z" fill="#f6cfdc" opacity="0.95" stroke="#f6cfdc" stroke-opacity=".35" stroke-width=".6"/><path transform="rotate(144)" d="M0 0 C-4.6 -2.9 -4.0 -7.7 0 -7.4 C4.0 -7.7 4.6 -2.9 0 0Z" fill="#f6cfdc" opacity="0.95" stroke="#f6cfdc" stroke-opacity=".35" stroke-width=".6"/><path transform="rotate(216)" d="M0 0 C-4.6 -2.9 -4.0 -7.7 0 -7.4 C4.0 -7.7 4.6 -2.9 0 0Z" fill="#f6cfdc" opacity="0.95" stroke="#f6cfdc" stroke-opacity=".35" stroke-width=".6"/><path transform="rotate(288)" d="M0 0 C-4.6 -2.9 -4.0 -7.7 0 -7.4 C4.0 -7.7 4.6 -2.9 0 0Z" fill="#f6cfdc" opacity="0.95" stroke="#f6cfdc" stroke-opacity=".35" stroke-width=".6"/><circle r="1.2" fill="#d96a98"/><circle cx="2.1" cy="0.0" r="0.5" fill="#fff1b8"/><circle cx="0.6" cy="2.0" r="0.5" fill="#fff1b8"/><circle cx="-1.8" cy="1.1" r="0.5" fill="#fff1b8"/><circle cx="-1.5" cy="-1.4" r="0.5" fill="#fff1b8"/><circle cx="1.0" cy="-1.8" r="0.5" fill="#fff1b8"/></g><g transform="translate(141.8 55.3) rotate(9)"><path transform="rotate(0)" d="M0 0 C-6.8 -4.4 -6.0 -11.4 0 -10.9 C6.0 -11.4 6.8 -4.4 0 0Z" fill="#e8a3c0" opacity="0.95" stroke="#f6cfdc" stroke-opacity=".35" stroke-width=".6"/><path transform="rotate(72)" d="M0 0 C-6.8 -4.4 -6.0 -11.4 0 -10.9 C6.0 -11.4 6.8 -4.4 0 0Z" fill="#e8a3c0" opacity="0.95" stroke="#f6cfdc" stroke-opacity=".35" stroke-width=".6"/><path transform="rotate(144)" d="M0 0 C-6.8 -4.4 -6.0 -11.4 0 -10.9 C6.0 -11.4 6.8 -4.4 0 0Z" fill="#e8a3c0" opacity="0.95" stroke="#f6cfdc" stroke-opacity=".35" stroke-width=".6"/><path transform="rotate(216)" d="M0 0 C-6.8 -4.4 -6.0 -11.4 0 -10.9 C6.0 -11.4 6.8 -4.4 0 0Z" fill="#e8a3c0" opacity="0.95" stroke="#f6cfdc" stroke-opacity=".35" stroke-width=".6"/><path transform="rotate(288)" d="M0 0 C-6.8 -4.4 -6.0 -11.4 0 -10.9 C6.0 -11.4 6.8 -4.4 0 0Z" fill="#e8a3c0" opacity="0.95" stroke="#f6cfdc" stroke-opacity=".35" stroke-width=".6"/><circle r="1.7" fill="#d96a98"/><circle cx="3.0" cy="0.0" r="0.8" fill="#fff1b8"/><circle cx="0.8" cy="2.9" r="0.8" fill="#fff1b8"/><circle cx="-2.6" cy="1.6" r="0.8" fill="#fff1b8"/><circle cx="-2.2" cy="-2.1" r="0.8" fill="#fff1b8"/><circle cx="1.4" cy="-2.7" r="0.8" fill="#fff1b8"/></g><g transform="translate(173.5 48.5) rotate(26)"><path transform="rotate(0)" d="M0 0 C-6.8 -4.4 -6.1 -11.6 0 -11.0 C6.1 -11.6 6.8 -4.4 0 0Z" fill="#c47a9b" opacity="0.95" stroke="#f6cfdc" stroke-opacity=".35" stroke-width=".6"/><path transform="rotate(72)" d="M0 0 C-6.8 -4.4 -6.1 -11.6 0 -11.0 C6.1 -11.6 6.8 -4.4 0 0Z" fill="#c47a9b" opacity="0.95" stroke="#f6cfdc" stroke-opacity=".35" stroke-width=".6"/><path transform="rotate(144)" d="M0 0 C-6.8 -4.4 -6.1 -11.6 0 -11.0 C6.1 -11.6 6.8 -4.4 0 0Z" fill="#c47a9b" opacity="0.95" stroke="#f6cfdc" stroke-opacity=".35" stroke-width=".6"/><path transform="rotate(216)" d="M0 0 C-6.8 -4.4 -6.1 -11.6 0 -11.0 C6.1 -11.6 6.8 -4.4 0 0Z" fill="#c47a9b" opacity="0.95" stroke="#f6cfdc" stroke-opacity=".35" stroke-width=".6"/><path transform="rotate(288)" d="M0 0 C-6.8 -4.4 -6.1 -11.6 0 -11.0 C6.1 -11.6 6.8 -4.4 0 0Z" fill="#c47a9b" opacity="0.95" stroke="#f6cfdc" stroke-opacity=".35" stroke-width=".6"/><circle r="1.8" fill="#d96a98"/><circle cx="3.1" cy="0.0" r="0.8" fill="#fff1b8"/><circle cx="0.8" cy="3.0" r="0.8" fill="#fff1b8"/><circle cx="-2.6" cy="1.6" r="0.8" fill="#fff1b8"/><circle cx="-2.2" cy="-2.1" r="0.8" fill="#fff1b8"/><circle cx="1.4" cy="-2.7" r="0.8" fill="#fff1b8"/></g><g transform="translate(132.9 34.6) rotate(48)"><path transform="rotate(0)" d="M0 0 C-6.0 -3.9 -5.4 -10.2 0 -9.8 C5.4 -10.2 6.0 -3.9 0 0Z" fill="#e8a3c0" opacity="0.95" stroke="#f6cfdc" stroke-opacity=".35" stroke-width=".6"/><path transform="rotate(72)" d="M0 0 C-6.0 -3.9 -5.4 -10.2 0 -9.8 C5.4 -10.2 6.0 -3.9 0 0Z" fill="#e8a3c0" opacity="0.95" stroke="#f6cfdc" stroke-opacity=".35" stroke-width=".6"/><path transform="rotate(144)" d="M0 0 C-6.0 -3.9 -5.4 -10.2 0 -9.8 C5.4 -10.2 6.0 -3.9 0 0Z" fill="#e8a3c0" opacity="0.95" stroke="#f6cfdc" stroke-opacity=".35" stroke-width=".6"/><path transform="rotate(216)" d="M0 0 C-6.0 -3.9 -5.4 -10.2 0 -9.8 C5.4 -10.2 6.0 -3.9 0 0Z" fill="#e8a3c0" opacity="0.95" stroke="#f6cfdc" stroke-opacity=".35" stroke-width=".6"/><path transform="rotate(288)" d="M0 0 C-6.0 -3.9 -5.4 -10.2 0 -9.8 C5.4 -10.2 6.0 -3.9 0 0Z" fill="#e8a3c0" opacity="0.95" stroke="#f6cfdc" stroke-opacity=".35" stroke-width=".6"/><circle r="1.6" fill="#d96a98"/><circle cx="2.7" cy="0.0" r="0.7" fill="#fff1b8"/><circle cx="0.7" cy="2.6" r="0.7" fill="#fff1b8"/><circle cx="-2.3" cy="1.4" r="0.7" fill="#fff1b8"/><circle cx="-2.0" cy="-1.9" r="0.7" fill="#fff1b8"/><circle cx="1.3" cy="-2.4" r="0.7" fill="#fff1b8"/></g><g transform="translate(27.3 27.9) rotate(2)"><path transform="rotate(0)" d="M0 0 C-6.2 -4.0 -5.5 -10.5 0 -10.0 C5.5 -10.5 6.2 -4.0 0 0Z" fill="#f6cfdc" opacity="0.95" stroke="#f6cfdc" stroke-opacity=".35" stroke-width=".6"/><path transform="rotate(72)" d="M0 0 C-6.2 -4.0 -5.5 -10.5 0 -10.0 C5.5 -10.5 6.2 -4.0 0 0Z" fill="#f6cfdc" opacity="0.95" stroke="#f6cfdc" stroke-opacity=".35" stroke-width=".6"/><path transform="rotate(144)" d="M0 0 C-6.2 -4.0 -5.5 -10.5 0 -10.0 C5.5 -10.5 6.2 -4.0 0 0Z" fill="#f6cfdc" opacity="0.95" stroke="#f6cfdc" stroke-opacity=".35" stroke-width=".6"/><path transform="rotate(216)" d="M0 0 C-6.2 -4.0 -5.5 -10.5 0 -10.0 C5.5 -10.5 6.2 -4.0 0 0Z" fill="#f6cfdc" opacity="0.95" stroke="#f6cfdc" stroke-opacity=".35" stroke-width=".6"/><path transform="rotate(288)" d="M0 0 C-6.2 -4.0 -5.5 -10.5 0 -10.0 C5.5 -10.5 6.2 -4.0 0 0Z" fill="#f6cfdc" opacity="0.95" stroke="#f6cfdc" stroke-opacity=".35" stroke-width=".6"/><circle r="1.6" fill="#d96a98"/><circle cx="2.8" cy="0.0" r="0.7" fill="#fff1b8"/><circle cx="0.7" cy="2.7" r="0.7" fill="#fff1b8"/><circle cx="-2.4" cy="1.4" r="0.7" fill="#fff1b8"/><circle cx="-2.0" cy="-1.9" r="0.7" fill="#fff1b8"/><circle cx="1.3" cy="-2.5" r="0.7" fill="#fff1b8"/></g><g transform="translate(60.3 104.2) rotate(71)"><path transform="rotate(0)" d="M0 0 C-5.6 -3.6 -5.0 -9.5 0 -9.0 C5.0 -9.5 5.6 -3.6 0 0Z" fill="#f6cfdc" opacity="0.95" stroke="#f6cfdc" stroke-opacity=".35" stroke-width=".6"/><path transform="rotate(72)" d="M0 0 C-5.6 -3.6 -5.0 -9.5 0 -9.0 C5.0 -9.5 5.6 -3.6 0 0Z" fill="#f6cfdc" opacity="0.95" stroke="#f6cfdc" stroke-opacity=".35" stroke-width=".6"/><path transform="rotate(144)" d="M0 0 C-5.6 -3.6 -5.0 -9.5 0 -9.0 C5.0 -9.5 5.6 -3.6 0 0Z" fill="#f6cfdc" opacity="0.95" stroke="#f6cfdc" stroke-opacity=".35" stroke-width=".6"/><path transform="rotate(216)" d="M0 0 C-5.6 -3.6 -5.0 -9.5 0 -9.0 C5.0 -9.5 5.6 -3.6 0 0Z" fill="#f6cfdc" opacity="0.95" stroke="#f6cfdc" stroke-opacity=".35" stroke-width=".6"/><path transform="rotate(288)" d="M0 0 C-5.6 -3.6 -5.0 -9.5 0 -9.0 C5.0 -9.5 5.6 -3.6 0 0Z" fill="#f6cfdc" opacity="0.95" stroke="#f6cfdc" stroke-opacity=".35" stroke-width=".6"/><circle r="1.4" fill="#d96a98"/><circle cx="2.5" cy="0.0" r="0.6" fill="#fff1b8"/><circle cx="0.7" cy="2.4" r="0.6" fill="#fff1b8"/><circle cx="-2.2" cy="1.3" r="0.6" fill="#fff1b8"/><circle cx="-1.8" cy="-1.7" r="0.6" fill="#fff1b8"/><circle cx="1.2" cy="-2.2" r="0.6" fill="#fff1b8"/></g><g transform="translate(177.9 29.9) rotate(64)"><path transform="rotate(0)" d="M0 0 C-6.3 -4.1 -5.6 -10.7 0 -10.2 C5.6 -10.7 6.3 -4.1 0 0Z" fill="#c47a9b" opacity="0.95" stroke="#f6cfdc" stroke-opacity=".35" stroke-width=".6"/><path transform="rotate(72)" d="M0 0 C-6.3 -4.1 -5.6 -10.7 0 -10.2 C5.6 -10.7 6.3 -4.1 0 0Z" fill="#c47a9b" opacity="0.95" stroke="#f6cfdc" stroke-opacity=".35" stroke-width=".6"/><path transform="rotate(144)" d="M0 0 C-6.3 -4.1 -5.6 -10.7 0 -10.2 C5.6 -10.7 6.3 -4.1 0 0Z" fill="#c47a9b" opacity="0.95" stroke="#f6cfdc" stroke-opacity=".35" stroke-width=".6"/><path transform="rotate(216)" d="M0 0 C-6.3 -4.1 -5.6 -10.7 0 -10.2 C5.6 -10.7 6.3 -4.1 0 0Z" fill="#c47a9b" opacity="0.95" stroke="#f6cfdc" stroke-opacity=".35" stroke-width=".6"/><path transform="rotate(288)" d="M0 0 C-6.3 -4.1 -5.6 -10.7 0 -10.2 C5.6 -10.7 6.3 -4.1 0 0Z" fill="#c47a9b" opacity="0.95" stroke="#f6cfdc" stroke-opacity=".35" stroke-width=".6"/><circle r="1.6" fill="#d96a98"/><circle cx="2.9" cy="0.0" r="0.7" fill="#fff1b8"/><circle cx="0.8" cy="2.8" r="0.7" fill="#fff1b8"/><circle cx="-2.4" cy="1.5" r="0.7" fill="#fff1b8"/><circle cx="-2.1" cy="-2.0" r="0.7" fill="#fff1b8"/><circle cx="1.3" cy="-2.5" r="0.7" fill="#fff1b8"/></g><g transform="translate(125.6 75.2) rotate(7)"><path transform="rotate(0)" d="M0 0 C-4.9 -3.2 -4.3 -8.3 0 -7.9 C4.3 -8.3 4.9 -3.2 0 0Z" fill="#f6cfdc" opacity="0.95" stroke="#f6cfdc" stroke-opacity=".35" stroke-width=".6"/><path transform="rotate(72)" d="M0 0 C-4.9 -3.2 -4.3 -8.3 0 -7.9 C4.3 -8.3 4.9 -3.2 0 0Z" fill="#f6cfdc" opacity="0.95" stroke="#f6cfdc" stroke-opacity=".35" stroke-width=".6"/><path transform="rotate(144)" d="M0 0 C-4.9 -3.2 -4.3 -8.3 0 -7.9 C4.3 -8.3 4.9 -3.2 0 0Z" fill="#f6cfdc" opacity="0.95" stroke="#f6cfdc" stroke-opacity=".35" stroke-width=".6"/><path transform="rotate(216)" d="M0 0 C-4.9 -3.2 -4.3 -8.3 0 -7.9 C4.3 -8.3 4.9 -3.2 0 0Z" fill="#f6cfdc" opacity="0.95" stroke="#f6cfdc" stroke-opacity=".35" stroke-width=".6"/><path transform="rotate(288)" d="M0 0 C-4.9 -3.2 -4.3 -8.3 0 -7.9 C4.3 -8.3 4.9 -3.2 0 0Z" fill="#f6cfdc" opacity="0.95" stroke="#f6cfdc" stroke-opacity=".35" stroke-width=".6"/><circle r="1.3" fill="#d96a98"/><circle cx="2.2" cy="0.0" r="0.6" fill="#fff1b8"/><circle cx="0.6" cy="2.1" r="0.6" fill="#fff1b8"/><circle cx="-1.9" cy="1.1" r="0.6" fill="#fff1b8"/><circle cx="-1.6" cy="-1.5" r="0.6" fill="#fff1b8"/><circle cx="1.0" cy="-2.0" r="0.6" fill="#fff1b8"/></g><g transform="translate(112.8 38.3) rotate(16)"><path transform="rotate(0)" d="M0 0 C-5.7 -3.7 -5.1 -9.7 0 -9.3 C5.1 -9.7 5.7 -3.7 0 0Z" fill="#f6cfdc" opacity="0.95" stroke="#f6cfdc" stroke-opacity=".35" stroke-width=".6"/><path transform="rotate(72)" d="M0 0 C-5.7 -3.7 -5.1 -9.7 0 -9.3 C5.1 -9.7 5.7 -3.7 0 0Z" fill="#f6cfdc" opacity="0.95" stroke="#f6cfdc" stroke-opacity=".35" stroke-width=".6"/><path transform="rotate(144)" d="M0 0 C-5.7 -3.7 -5.1 -9.7 0 -9.3 C5.1 -9.7 5.7 -3.7 0 0Z" fill="#f6cfdc" opacity="0.95" stroke="#f6cfdc" stroke-opacity=".35" stroke-width=".6"/><path transform="rotate(216)" d="M0 0 C-5.7 -3.7 -5.1 -9.7 0 -9.3 C5.1 -9.7 5.7 -3.7 0 0Z" fill="#f6cfdc" opacity="0.95" stroke="#f6cfdc" stroke-opacity=".35" stroke-width=".6"/><path transform="rotate(288)" d="M0 0 C-5.7 -3.7 -5.1 -9.7 0 -9.3 C5.1 -9.7 5.7 -3.7 0 0Z" fill="#f6cfdc" opacity="0.95" stroke="#f6cfdc" stroke-opacity=".35" stroke-width=".6"/><circle r="1.5" fill="#d96a98"/><circle cx="2.6" cy="0.0" r="0.6" fill="#fff1b8"/><circle cx="0.7" cy="2.5" r="0.6" fill="#fff1b8"/><circle cx="-2.2" cy="1.3" r="0.6" fill="#fff1b8"/><circle cx="-1.9" cy="-1.8" r="0.6" fill="#fff1b8"/><circle cx="1.2" cy="-2.3" r="0.6" fill="#fff1b8"/></g><g transform="translate(110.6 30.6) rotate(6)"><path transform="rotate(0)" d="M0 0 C-6.9 -4.4 -6.1 -11.6 0 -11.1 C6.1 -11.6 6.9 -4.4 0 0Z" fill="#f6cfdc" opacity="0.95" stroke="#f6cfdc" stroke-opacity=".35" stroke-width=".6"/><path transform="rotate(72)" d="M0 0 C-6.9 -4.4 -6.1 -11.6 0 -11.1 C6.1 -11.6 6.9 -4.4 0 0Z" fill="#f6cfdc" opacity="0.95" stroke="#f6cfdc" stroke-opacity=".35" stroke-width=".6"/><path transform="rotate(144)" d="M0 0 C-6.9 -4.4 -6.1 -11.6 0 -11.1 C6.1 -11.6 6.9 -4.4 0 0Z" fill="#f6cfdc" opacity="0.95" stroke="#f6cfdc" stroke-opacity=".35" stroke-width=".6"/><path transform="rotate(216)" d="M0 0 C-6.9 -4.4 -6.1 -11.6 0 -11.1 C6.1 -11.6 6.9 -4.4 0 0Z" fill="#f6cfdc" opacity="0.95" stroke="#f6cfdc" stroke-opacity=".35" stroke-width=".6"/><path transform="rotate(288)" d="M0 0 C-6.9 -4.4 -6.1 -11.6 0 -11.1 C6.1 -11.6 6.9 -4.4 0 0Z" fill="#f6cfdc" opacity="0.95" stroke="#f6cfdc" stroke-opacity=".35" stroke-width=".6"/><circle r="1.8" fill="#d96a98"/><circle cx="3.1" cy="0.0" r="0.8" fill="#fff1b8"/><circle cx="0.8" cy="3.0" r="0.8" fill="#fff1b8"/><circle cx="-2.7" cy="1.6" r="0.8" fill="#fff1b8"/><circle cx="-2.3" cy="-2.1" r="0.8" fill="#fff1b8"/><circle cx="1.5" cy="-2.7" r="0.8" fill="#fff1b8"/></g><g transform="translate(45.6 35.6) rotate(49)"><path transform="rotate(0)" d="M0 0 C-5.6 -3.6 -5.0 -9.5 0 -9.1 C5.0 -9.5 5.6 -3.6 0 0Z" fill="#c47a9b" opacity="0.95" stroke="#f6cfdc" stroke-opacity=".35" stroke-width=".6"/><path transform="rotate(72)" d="M0 0 C-5.6 -3.6 -5.0 -9.5 0 -9.1 C5.0 -9.5 5.6 -3.6 0 0Z" fill="#c47a9b" opacity="0.95" stroke="#f6cfdc" stroke-opacity=".35" stroke-width=".6"/><path transform="rotate(144)" d="M0 0 C-5.6 -3.6 -5.0 -9.5 0 -9.1 C5.0 -9.5 5.6 -3.6 0 0Z" fill="#c47a9b" opacity="0.95" stroke="#f6cfdc" stroke-opacity=".35" stroke-width=".6"/><path transform="rotate(216)" d="M0 0 C-5.6 -3.6 -5.0 -9.5 0 -9.1 C5.0 -9.5 5.6 -3.6 0 0Z" fill="#c47a9b" opacity="0.95" stroke="#f6cfdc" stroke-opacity=".35" stroke-width=".6"/><path transform="rotate(288)" d="M0 0 C-5.6 -3.6 -5.0 -9.5 0 -9.1 C5.0 -9.5 5.6 -3.6 0 0Z" fill="#c47a9b" opacity="0.95" stroke="#f6cfdc" stroke-opacity=".35" stroke-width=".6"/><circle r="1.4" fill="#d96a98"/><circle cx="2.5" cy="0.0" r="0.6" fill="#fff1b8"/><circle cx="0.7" cy="2.4" r="0.6" fill="#fff1b8"/><circle cx="-2.2" cy="1.3" r="0.6" fill="#fff1b8"/><circle cx="-1.8" cy="-1.7" r="0.6" fill="#fff1b8"/><circle cx="1.2" cy="-2.2" r="0.6" fill="#fff1b8"/></g><g transform="translate(41.3 62.4) rotate(39)"><path transform="rotate(0)" d="M0 0 C-6.5 -4.2 -5.7 -10.9 0 -10.4 C5.7 -10.9 6.5 -4.2 0 0Z" fill="#f6cfdc" opacity="0.95" stroke="#f6cfdc" stroke-opacity=".35" stroke-width=".6"/><path transform="rotate(72)" d="M0 0 C-6.5 -4.2 -5.7 -10.9 0 -10.4 C5.7 -10.9 6.5 -4.2 0 0Z" fill="#f6cfdc" opacity="0.95" stroke="#f6cfdc" stroke-opacity=".35" stroke-width=".6"/><path transform="rotate(144)" d="M0 0 C-6.5 -4.2 -5.7 -10.9 0 -10.4 C5.7 -10.9 6.5 -4.2 0 0Z" fill="#f6cfdc" opacity="0.95" stroke="#f6cfdc" stroke-opacity=".35" stroke-width=".6"/><path transform="rotate(216)" d="M0 0 C-6.5 -4.2 -5.7 -10.9 0 -10.4 C5.7 -10.9 6.5 -4.2 0 0Z" fill="#f6cfdc" opacity="0.95" stroke="#f6cfdc" stroke-opacity=".35" stroke-width=".6"/><path transform="rotate(288)" d="M0 0 C-6.5 -4.2 -5.7 -10.9 0 -10.4 C5.7 -10.9 6.5 -4.2 0 0Z" fill="#f6cfdc" opacity="0.95" stroke="#f6cfdc" stroke-opacity=".35" stroke-width=".6"/><circle r="1.7" fill="#d96a98"/><circle cx="2.9" cy="0.0" r="0.7" fill="#fff1b8"/><circle cx="0.8" cy="2.8" r="0.7" fill="#fff1b8"/><circle cx="-2.5" cy="1.5" r="0.7" fill="#fff1b8"/><circle cx="-2.1" cy="-2.0" r="0.7" fill="#fff1b8"/><circle cx="1.4" cy="-2.6" r="0.7" fill="#fff1b8"/></g><g transform="translate(78.1 60.6) rotate(60)"><path transform="rotate(0)" d="M0 0 C-5.6 -3.6 -5.0 -9.5 0 -9.1 C5.0 -9.5 5.6 -3.6 0 0Z" fill="#f6cfdc" opacity="0.95" stroke="#f6cfdc" stroke-opacity=".35" stroke-width=".6"/><path transform="rotate(72)" d="M0 0 C-5.6 -3.6 -5.0 -9.5 0 -9.1 C5.0 -9.5 5.6 -3.6 0 0Z" fill="#f6cfdc" opacity="0.95" stroke="#f6cfdc" stroke-opacity=".35" stroke-width=".6"/><path transform="rotate(144)" d="M0 0 C-5.6 -3.6 -5.0 -9.5 0 -9.1 C5.0 -9.5 5.6 -3.6 0 0Z" fill="#f6cfdc" opacity="0.95" stroke="#f6cfdc" stroke-opacity=".35" stroke-width=".6"/><path transform="rotate(216)" d="M0 0 C-5.6 -3.6 -5.0 -9.5 0 -9.1 C5.0 -9.5 5.6 -3.6 0 0Z" fill="#f6cfdc" opacity="0.95" stroke="#f6cfdc" stroke-opacity=".35" stroke-width=".6"/><path transform="rotate(288)" d="M0 0 C-5.6 -3.6 -5.0 -9.5 0 -9.1 C5.0 -9.5 5.6 -3.6 0 0Z" fill="#f6cfdc" opacity="0.95" stroke="#f6cfdc" stroke-opacity=".35" stroke-width=".6"/><circle r="1.5" fill="#d96a98"/><circle cx="2.5" cy="0.0" r="0.6" fill="#fff1b8"/><circle cx="0.7" cy="2.5" r="0.6" fill="#fff1b8"/><circle cx="-2.2" cy="1.3" r="0.6" fill="#fff1b8"/><circle cx="-1.8" cy="-1.8" r="0.6" fill="#fff1b8"/><circle cx="1.2" cy="-2.2" r="0.6" fill="#fff1b8"/></g><g transform="translate(106.2 41.8) rotate(68)"><path transform="rotate(0)" d="M0 0 C-7.0 -4.5 -6.2 -11.9 0 -11.3 C6.2 -11.9 7.0 -4.5 0 0Z" fill="#e8a3c0" opacity="0.95" stroke="#f6cfdc" stroke-opacity=".35" stroke-width=".6"/><path transform="rotate(72)" d="M0 0 C-7.0 -4.5 -6.2 -11.9 0 -11.3 C6.2 -11.9 7.0 -4.5 0 0Z" fill="#e8a3c0" opacity="0.95" stroke="#f6cfdc" stroke-opacity=".35" stroke-width=".6"/><path transform="rotate(144)" d="M0 0 C-7.0 -4.5 -6.2 -11.9 0 -11.3 C6.2 -11.9 7.0 -4.5 0 0Z" fill="#e8a3c0" opacity="0.95" stroke="#f6cfdc" stroke-opacity=".35" stroke-width=".6"/><path transform="rotate(216)" d="M0 0 C-7.0 -4.5 -6.2 -11.9 0 -11.3 C6.2 -11.9 7.0 -4.5 0 0Z" fill="#e8a3c0" opacity="0.95" stroke="#f6cfdc" stroke-opacity=".35" stroke-width=".6"/><path transform="rotate(288)" d="M0 0 C-7.0 -4.5 -6.2 -11.9 0 -11.3 C6.2 -11.9 7.0 -4.5 0 0Z" fill="#e8a3c0" opacity="0.95" stroke="#f6cfdc" stroke-opacity=".35" stroke-width=".6"/><circle r="1.8" fill="#d96a98"/><circle cx="3.2" cy="0.0" r="0.8" fill="#fff1b8"/><circle cx="0.8" cy="3.1" r="0.8" fill="#fff1b8"/><circle cx="-2.7" cy="1.6" r="0.8" fill="#fff1b8"/><circle cx="-2.3" cy="-2.2" r="0.8" fill="#fff1b8"/><circle cx="1.5" cy="-2.8" r="0.8" fill="#fff1b8"/></g><g transform="translate(122.2 63.1) rotate(32)"><path transform="rotate(0)" d="M0 0 C-5.2 -3.3 -4.6 -8.8 0 -8.3 C4.6 -8.8 5.2 -3.3 0 0Z" fill="#c47a9b" opacity="0.95" stroke="#f6cfdc" stroke-opacity=".35" stroke-width=".6"/><path transform="rotate(72)" d="M0 0 C-5.2 -3.3 -4.6 -8.8 0 -8.3 C4.6 -8.8 5.2 -3.3 0 0Z" fill="#c47a9b" opacity="0.95" stroke="#f6cfdc" stroke-opacity=".35" stroke-width=".6"/><path transform="rotate(144)" d="M0 0 C-5.2 -3.3 -4.6 -8.8 0 -8.3 C4.6 -8.8 5.2 -3.3 0 0Z" fill="#c47a9b" opacity="0.95" stroke="#f6cfdc" stroke-opacity=".35" stroke-width=".6"/><path transform="rotate(216)" d="M0 0 C-5.2 -3.3 -4.6 -8.8 0 -8.3 C4.6 -8.8 5.2 -3.3 0 0Z" fill="#c47a9b" opacity="0.95" stroke="#f6cfdc" stroke-opacity=".35" stroke-width=".6"/><path transform="rotate(288)" d="M0 0 C-5.2 -3.3 -4.6 -8.8 0 -8.3 C4.6 -8.8 5.2 -3.3 0 0Z" fill="#c47a9b" opacity="0.95" stroke="#f6cfdc" stroke-opacity=".35" stroke-width=".6"/><circle r="1.3" fill="#d96a98"/><circle cx="2.3" cy="0.0" r="0.6" fill="#fff1b8"/><circle cx="0.6" cy="2.2" r="0.6" fill="#fff1b8"/><circle cx="-2.0" cy="1.2" r="0.6" fill="#fff1b8"/><circle cx="-1.7" cy="-1.6" r="0.6" fill="#fff1b8"/><circle cx="1.1" cy="-2.1" r="0.6" fill="#fff1b8"/></g><path transform="translate(110.1 112.9) rotate(104) scale(0.86)" d="M0 -6 C5 -6 7 -1 0 7 C-7 -1 -5 -6 0 -6Z" fill="#c47a9b" opacity="0.4050810244586059"/><path transform="translate(5.7 53.8) rotate(91) scale(0.75)" d="M0 -6 C5 -6 7 -1 0 7 C-7 -1 -5 -6 0 -6Z" fill="#c47a9b" opacity="0.670262405448883"/><path transform="translate(144.4 101.4) rotate(198) scale(0.44)" d="M0 -6 C5 -6 7 -1 0 7 C-7 -1 -5 -6 0 -6Z" fill="#f6cfdc" opacity="0.7563045002208078"/><path transform="translate(184.7 21.1) rotate(201) scale(0.73)" d="M0 -6 C5 -6 7 -1 0 7 C-7 -1 -5 -6 0 -6Z" fill="#f6cfdc" opacity="0.5155180399863546"/><path transform="translate(26.1 100.2) rotate(147) scale(0.41)" d="M0 -6 C5 -6 7 -1 0 7 C-7 -1 -5 -6 0 -6Z" fill="#b9a4e6" opacity="0.6700876898926726"/><path transform="translate(126.6 95.6) rotate(182) scale(0.58)" d="M0 -6 C5 -6 7 -1 0 7 C-7 -1 -5 -6 0 -6Z" fill="#c47a9b" opacity="0.3589171582191514"/><path transform="translate(78.5 7.2) rotate(128) scale(0.75)" d="M0 -6 C5 -6 7 -1 0 7 C-7 -1 -5 -6 0 -6Z" fill="#b9a4e6" opacity="0.5374145067486049"/><path transform="translate(163.4 121.5) rotate(200) scale(0.49)" d="M0 -6 C5 -6 7 -1 0 7 C-7 -1 -5 -6 0 -6Z" fill="#f6cfdc" opacity="0.6134588850936533"/><path transform="translate(75.9 37.4) rotate(69) scale(0.77)" d="M0 -6 C5 -6 7 -1 0 7 C-7 -1 -5 -6 0 -6Z" fill="#f6cfdc" opacity="0.47508610508801463"/><path transform="translate(64.9 48.7) rotate(34) scale(0.46)" d="M0 -6 C5 -6 7 -1 0 7 C-7 -1 -5 -6 0 -6Z" fill="#c47a9b" opacity="0.5175558016067867"/></g></g><rect x="12" y="12" width="211" height="140" rx="14" fill="none" stroke="#e8a3c0" stroke-opacity=".35"/><rect x="20" y="20" width="110" height="22" rx="11" fill="#0c0f1d" fill-opacity=".72"/><rect x="20" y="20" width="110" height="22" rx="11.0" fill="#e8a3c0" fill-opacity=".14" stroke="#e8a3c0" stroke-opacity=".55"/><text x="75" y="34.5" font-family="'Segoe UI','Helvetica Neue',Helvetica,Arial,sans-serif" font-size="10" fill="#f3e9dc" text-anchor="middle" >updated 1d ago</text><text x="20" y="186" font-family="'Segoe Print','Bradley Hand','Chalkboard SE','Marker Felt','Comic Sans MS','Comic Neue',cursive" font-size="20" fill="#f3e9dc" text-anchor="start" font-weight="700">Detour</text><text x="20" y="210" font-family="'Segoe UI','Helvetica Neue',Helvetica,Arial,sans-serif" font-size="12.5" fill="#b9bccf" text-anchor="start" >Description coming soon.</text><text x="20" y="284" font-family="'Segoe UI','Helvetica Neue',Helvetica,Arial,sans-serif" font-size="11.5" fill="#b9bccf" text-anchor="start" font-style="italic" opacity=".85">2 commits</text><rect x="20" y="292" width="52" height="26" rx="13.0" fill="#e8a3c0" fill-opacity=".14" stroke="#e8a3c0" stroke-opacity=".55"/><text x="46" y="308.85" font-family="'Segoe UI','Helvetica Neue',Helvetica,Arial,sans-serif" font-size="11" fill="#f3e9dc" text-anchor="middle" >HTML</text><text x="20" y="338" font-family="'Segoe Print','Bradley Hand','Chalkboard SE','Marker Felt','Comic Sans MS','Comic Neue',cursive" font-size="13" fill="#e8a3c0" text-anchor="start" font-weight="600">View repo  →</text>
</svg>
