<svg xmlns="http://www.w3.org/2000/svg" viewBox="0 0 235 350" width="235" height="350" role="img">
<defs>
<linearGradient id="bg" x1="0" y1="0" x2="0" y2="1"><stop offset="0" stop-color="#0c0f1d"/><stop offset="1" stop-color="#171a31"/></linearGradient>
<linearGradient id="card" x1="0" y1="0" x2="1" y2="1"><stop offset="0" stop-color="#161a2e"/><stop offset="1" stop-color="#1d2040"/></linearGradient>
<linearGradient id="sky" x1="0" y1="0" x2="0" y2="1"><stop offset="0" stop-color="#1b1745"/><stop offset="0.6" stop-color="#4a2f6e"/><stop offset="1" stop-color="#8a4f85"/></linearGradient>
<radialGradient id="warm"><stop offset="0" stop-color="#ffd9a8" stop-opacity=".55"/><stop offset="1" stop-color="#ffd9a8" stop-opacity="0"/></radialGradient>
<radialGradient id="pinkglow"><stop offset="0" stop-color="#e8a3c0" stop-opacity=".35"/><stop offset="1" stop-color="#e8a3c0" stop-opacity="0"/></radialGradient>
<radialGradient id="lavglow"><stop offset="0" stop-color="#b9a4e6" stop-opacity=".35"/><stop offset="1" stop-color="#b9a4e6" stop-opacity="0"/></radialGradient>
<filter id="soft" x="-20%" y="-20%" width="140%" height="140%"><feGaussianBlur stdDeviation="1.2"/></filter>
<filter id="shadow" x="-10%" y="-10%" width="120%" height="130%"><feDropShadow dx="0" dy="6" stdDeviation="8" flood-color="#000" flood-opacity=".35"/></filter>
<clipPath id="art1"><rect x="12" y="12" width="211" height="140" rx="14"/></clipPath></defs>
<rect x="1.5" y="1.5" width="232" height="347" rx="20" fill="url(#card)" stroke="#3b3566" stroke-width="1.4"/><rect x="3" y="3" width="229" height="344" rx="18" fill="none" stroke="#f6cfdc" stroke-opacity=".06"/><g clip-path="url(#art1)"><g transform="translate(12 12)"><rect width="211" height="140" fill="#0f1a2c"/><circle cx="105.5" cy="70.0" r="80" fill="#7fd6c8" opacity=".08"/><line x1="45.5" y1="10.0" x2="165.5" y2="10.0" stroke="#7fd6c8" stroke-opacity=".28"/><line x1="45.5" y1="10.0" x2="45.5" y2="130.0" stroke="#7fd6c8" stroke-opacity=".28"/><line x1="45.5" y1="22.0" x2="165.5" y2="22.0" stroke="#7fd6c8" stroke-opacity=".28"/><line x1="57.5" y1="10.0" x2="57.5" y2="130.0" stroke="#7fd6c8" stroke-opacity=".28"/><line x1="45.5" y1="34.0" x2="165.5" y2="34.0" stroke="#7fd6c8" stroke-opacity=".28"/><line x1="69.5" y1="10.0" x2="69.5" y2="130.0" stroke="#7fd6c8" stroke-opacity=".28"/><line x1="45.5" y1="46.0" x2="165.5" y2="46.0" stroke="#7fd6c8" stroke-opacity=".28"/><line x1="81.5" y1="10.0" x2="81.5" y2="130.0" stroke="#7fd6c8" stroke-opacity=".28"/><line x1="45.5" y1="58.0" x2="165.5" y2="58.0" stroke="#7fd6c8" stroke-opacity=".28"/><line x1="93.5" y1="10.0" x2="93.5" y2="130.0" stroke="#7fd6c8" stroke-opacity=".28"/><line x1="45.5" y1="70.0" x2="165.5" y2="70.0" stroke="#7fd6c8" stroke-opacity=".28"/><line x1="105.5" y1="10.0" x2="105.5" y2="130.0" stroke="#7fd6c8" stroke-opacity=".28"/><line x1="45.5" y1="82.0" x2="165.5" y2="82.0" stroke="#7fd6c8" stroke-opacity=".28"/><line x1="117.5" y1="10.0" x2="117.5" y2="130.0" stroke="#7fd6c8" stroke-opacity=".28"/><line x1="45.5" y1="94.0" x2="165.5" y2="94.0" stroke="#7fd6c8" stroke-opacity=".28"/><line x1="129.5" y1="10.0" x2="129.5" y2="130.0" stroke="#7fd6c8" stroke-opacity=".28"/><line x1="45.5" y1="106.0" x2="165.5" y2="106.0" stroke="#7fd6c8" stroke-opacity=".28"/><line x1="141.5" y1="10.0" x2="141.5" y2="130.0" stroke="#7fd6c8" stroke-opacity=".28"/><line x1="45.5" y1="118.0" x2="165.5" y2="118.0" stroke="#7fd6c8" stroke-opacity=".28"/><line x1="153.5" y1="10.0" x2="153.5" y2="130.0" stroke="#7fd6c8" stroke-opacity=".28"/><line x1="45.5" y1="130.0" x2="165.5" y2="130.0" stroke="#7fd6c8" stroke-opacity=".28"/><line x1="165.5" y1="10.0" x2="165.5" y2="130.0" stroke="#7fd6c8" stroke-opacity=".28"/><circle cx="75.5" cy="52.0" r="4.2" fill="#e8a3c0" opacity=".85"/><line x1="80.0" y1="52.0" x2="82.5" y2="52.0" stroke="#e8a3c0" stroke-width="1.2" opacity=".85"/><line x1="77.7" y1="55.9" x2="79.0" y2="58.1" stroke="#e8a3c0" stroke-width="1.2" opacity=".85"/><line x1="73.2" y1="55.9" x2="72.0" y2="58.0" stroke="#e8a3c0" stroke-width="1.2" opacity=".85"/><line x1="71.0" y1="52.0" x2="68.5" y2="52.0" stroke="#e8a3c0" stroke-width="1.2" opacity=".85"/><line x1="73.3" y1="48.1" x2="72.1" y2="45.9" stroke="#e8a3c0" stroke-width="1.2" opacity=".85"/><line x1="77.8" y1="48.1" x2="79.1" y2="46.0" stroke="#e8a3c0" stroke-width="1.2" opacity=".85"/><circle cx="123.5" cy="40.0" r="4.2" fill="#e8a3c0" opacity=".85"/><line x1="128.0" y1="40.0" x2="130.5" y2="40.0" stroke="#e8a3c0" stroke-width="1.2" opacity=".85"/><line x1="125.7" y1="43.9" x2="127.0" y2="46.1" stroke="#e8a3c0" stroke-width="1.2" opacity=".85"/><line x1="121.2" y1="43.9" x2="120.0" y2="46.0" stroke="#e8a3c0" stroke-width="1.2" opacity=".85"/><line x1="119.0" y1="40.0" x2="116.5" y2="40.0" stroke="#e8a3c0" stroke-width="1.2" opacity=".85"/><line x1="121.3" y1="36.1" x2="120.1" y2="33.9" stroke="#e8a3c0" stroke-width="1.2" opacity=".85"/><line x1="125.8" y1="36.1" x2="127.1" y2="34.0" stroke="#e8a3c0" stroke-width="1.2" opacity=".85"/><circle cx="99.5" cy="88.0" r="4.2" fill="#e8a3c0" opacity=".85"/><line x1="104.0" y1="88.0" x2="106.5" y2="88.0" stroke="#e8a3c0" stroke-width="1.2" opacity=".85"/><line x1="101.7" y1="91.9" x2="103.0" y2="94.1" stroke="#e8a3c0" stroke-width="1.2" opacity=".85"/><line x1="97.2" y1="91.9" x2="96.0" y2="94.0" stroke="#e8a3c0" stroke-width="1.2" opacity=".85"/><line x1="95.0" y1="88.0" x2="92.5" y2="88.0" stroke="#e8a3c0" stroke-width="1.2" opacity=".85"/><line x1="97.3" y1="84.1" x2="96.1" y2="81.9" stroke="#e8a3c0" stroke-width="1.2" opacity=".85"/><line x1="101.8" y1="84.1" x2="103.1" y2="82.0" stroke="#e8a3c0" stroke-width="1.2" opacity=".85"/><circle cx="135.5" cy="100.0" r="4.2" fill="#e8a3c0" opacity=".85"/><line x1="140.0" y1="100.0" x2="142.5" y2="100.0" stroke="#e8a3c0" stroke-width="1.2" opacity=".85"/><line x1="137.7" y1="103.9" x2="139.0" y2="106.1" stroke="#e8a3c0" stroke-width="1.2" opacity=".85"/><line x1="133.2" y1="103.9" x2="132.0" y2="106.0" stroke="#e8a3c0" stroke-width="1.2" opacity=".85"/><line x1="131.0" y1="100.0" x2="128.5" y2="100.0" stroke="#e8a3c0" stroke-width="1.2" opacity=".85"/><line x1="133.3" y1="96.1" x2="132.1" y2="93.9" stroke="#e8a3c0" stroke-width="1.2" opacity=".85"/><line x1="137.8" y1="96.1" x2="139.1" y2="94.0" stroke="#e8a3c0" stroke-width="1.2" opacity=".85"/><circle cx="63.5" cy="112.0" r="4.2" fill="#e8a3c0" opacity=".85"/><line x1="68.0" y1="112.0" x2="70.5" y2="112.0" stroke="#e8a3c0" stroke-width="1.2" opacity=".85"/><line x1="65.7" y1="115.9" x2="67.0" y2="118.1" stroke="#e8a3c0" stroke-width="1.2" opacity=".85"/><line x1="61.2" y1="115.9" x2="60.0" y2="118.0" stroke="#e8a3c0" stroke-width="1.2" opacity=".85"/><line x1="59.0" y1="112.0" x2="56.5" y2="112.0" stroke="#e8a3c0" stroke-width="1.2" opacity=".85"/><line x1="61.3" y1="108.1" x2="60.1" y2="105.9" stroke="#e8a3c0" stroke-width="1.2" opacity=".85"/><line x1="65.8" y1="108.1" x2="67.1" y2="106.0" stroke="#e8a3c0" stroke-width="1.2" opacity=".85"/><rect x="93.5" y="58.0" width="12" height="12" fill="#7fd6c8" opacity=".6"/><path transform="translate(34.0 34.0) scale(0.83)" d="M0 -6 Q0 0 6 0 Q0 0 0 6 Q0 0 -6 0 Q0 0 0 -6Z" fill="#7fd6c8" opacity="0.9"/><path transform="translate(181.0 110.0) scale(0.67)" d="M0 -6 Q0 0 6 0 Q0 0 0 6 Q0 0 -6 0 Q0 0 0 -6Z" fill="#f3e9dc" opacity="0.9"/></g></g><rect x="12" y="12" width="211" height="140" rx="14" fill="none" stroke="#b9a4e6" stroke-opacity=".35"/><rect x="20" y="20" width="98" height="22" rx="11" fill="#0c0f1d" fill-opacity=".72"/><rect x="20" y="20" width="98" height="22" rx="11.0" fill="#b9a4e6" fill-opacity=".14" stroke="#b9a4e6" stroke-opacity=".55"/><text x="69" y="34.5" font-family="'Segoe UI','Helvetica Neue',Helvetica,Arial,sans-serif" font-size="10" fill="#f3e9dc" text-anchor="middle" >just started</text><text x="20" y="186" font-family="'Segoe Print','Bradley Hand','Chalkboard SE','Marker Felt','Comic Sans MS','Comic Neue',cursive" font-size="20" fill="#f3e9dc" text-anchor="start" font-weight="700">CyberDefuse</text><text x="20" y="210" font-family="'Segoe UI','Helvetica Neue',Helvetica,Arial,sans-serif" font-size="12.5" fill="#b9bccf" text-anchor="start" >A 10×10 grid virus puzzle with</text><text x="20" y="228" font-family="'Segoe UI','Helvetica Neue',Helvetica,Arial,sans-serif" font-size="12.5" fill="#b9bccf" text-anchor="start" >a hacker-console look. One</text><text x="20" y="246" font-family="'Segoe UI','Helvetica Neue',Helvetica,Arial,sans-serif" font-size="12.5" fill="#b9bccf" text-anchor="start" >HTML file so far.</text><rect x="20" y="292" width="52" height="26" rx="13.0" fill="#b9a4e6" fill-opacity=".14" stroke="#b9a4e6" stroke-opacity=".55"/><text x="46" y="308.85" font-family="'Segoe UI','Helvetica Neue',Helvetica,Arial,sans-serif" font-size="11" fill="#f3e9dc" text-anchor="middle" >HTML</text><text x="20" y="338" font-family="'Segoe Print','Bradley Hand','Chalkboard SE','Marker Felt','Comic Sans MS','Comic Neue',cursive" font-size="13" fill="#b9a4e6" text-anchor="start" font-weight="600">View repo  →</text>
</svg>
