<svg xmlns="http://www.w3.org/2000/svg" viewBox="0 0 490 240" width="490" height="240" role="img">
<defs>
<linearGradient id="bg" x1="0" y1="0" x2="0" y2="1"><stop offset="0" stop-color="#0c0f1d"/><stop offset="1" stop-color="#171a31"/></linearGradient>
<linearGradient id="card" x1="0" y1="0" x2="1" y2="1"><stop offset="0" stop-color="#161a2e"/><stop offset="1" stop-color="#1d2040"/></linearGradient>
<linearGradient id="sky" x1="0" y1="0" x2="0" y2="1"><stop offset="0" stop-color="#1b1745"/><stop offset="0.6" stop-color="#4a2f6e"/><stop offset="1" stop-color="#8a4f85"/></linearGradient>
<radialGradient id="warm"><stop offset="0" stop-color="#ffd9a8" stop-opacity=".55"/><stop offset="1" stop-color="#ffd9a8" stop-opacity="0"/></radialGradient>
<radialGradient id="pinkglow"><stop offset="0" stop-color="#e8a3c0" stop-opacity=".35"/><stop offset="1" stop-color="#e8a3c0" stop-opacity="0"/></radialGradient>
<radialGradient id="lavglow"><stop offset="0" stop-color="#b9a4e6" stop-opacity=".35"/><stop offset="1" stop-color="#b9a4e6" stop-opacity="0"/></radialGradient>
<filter id="soft" x="-20%" y="-20%" width="140%" height="140%"><feGaussianBlur stdDeviation="1.2"/></filter>
<filter id="shadow" x="-10%" y="-10%" width="120%" height="130%"><feDropShadow dx="0" dy="6" stdDeviation="8" flood-color="#000" flood-opacity=".35"/></filter>
</defs>
<rect x="1.5" y="1.5" width="487" height="237" rx="22" fill="url(#card)" stroke="#3b3566" stroke-width="1.4"/><rect x="3" y="3" width="484" height="234" rx="20" fill="none" stroke="#f6cfdc" stroke-opacity=".06"/><clipPath id="cc"><rect x="1.5" y="1.5" width="487" height="237" rx="22"/></clipPath><circle clip-path="url(#cc)" cx="60" cy="30" r="160" fill="url(#pinkglow)"/><g transform="translate(36.0 36.0) rotate(10)"><path transform="rotate(0)" d="M0 0 C-6.8 -4.4 -6.1 -11.6 0 -11.0 C6.1 -11.6 6.8 -4.4 0 0Z" fill="#e8a3c0" opacity="0.95" stroke="#f6cfdc" stroke-opacity=".35" stroke-width=".6"/><path transform="rotate(72)" d="M0 0 C-6.8 -4.4 -6.1 -11.6 0 -11.0 C6.1 -11.6 6.8 -4.4 0 0Z" fill="#e8a3c0" opacity="0.95" stroke="#f6cfdc" stroke-opacity=".35" stroke-width=".6"/><path transform="rotate(144)" d="M0 0 C-6.8 -4.4 -6.1 -11.6 0 -11.0 C6.1 -11.6 6.8 -4.4 0 0Z" fill="#e8a3c0" opacity="0.95" stroke="#f6cfdc" stroke-opacity=".35" stroke-width=".6"/><path transform="rotate(216)" d="M0 0 C-6.8 -4.4 -6.1 -11.6 0 -11.0 C6.1 -11.6 6.8 -4.4 0 0Z" fill="#e8a3c0" opacity="0.95" stroke="#f6cfdc" stroke-opacity=".35" stroke-width=".6"/><path transform="rotate(288)" d="M0 0 C-6.8 -4.4 -6.1 -11.6 0 -11.0 C6.1 -11.6 6.8 -4.4 0 0Z" fill="#e8a3c0" opacity="0.95" stroke="#f6cfdc" stroke-opacity=".35" stroke-width=".6"/><circle r="1.8" fill="#d96a98"/><circle cx="3.1" cy="0.0" r="0.8" fill="#fff1b8"/><circle cx="0.8" cy="3.0" r="0.8" fill="#fff1b8"/><circle cx="-2.6" cy="1.6" r="0.8" fill="#fff1b8"/><circle cx="-2.2" cy="-2.1" r="0.8" fill="#fff1b8"/><circle cx="1.4" cy="-2.7" r="0.8" fill="#fff1b8"/></g><text x="58" y="44" font-family="'Segoe Print','Bradley Hand','Chalkboard SE','Marker Felt','Comic Sans MS','Comic Neue',cursive" font-size="21" fill="#f3e9dc" text-anchor="start" font-weight="600" textLength="273" lengthAdjust="spacingAndGlyphs">things i keep reaching for</text><rect x="28" y="76" width="57" height="28" rx="14.0" fill="#e8a3c0" fill-opacity=".14" stroke="#e8a3c0" stroke-opacity=".55"/><text x="57" y="94.55" font-family="'Segoe UI','Helvetica Neue',Helvetica,Arial,sans-serif" font-size="13" fill="#f3e9dc" text-anchor="middle" >Java</text><rect x="95.2" y="76" width="112" height="28" rx="14.0" fill="#b9a4e6" fill-opacity=".14" stroke="#b9a4e6" stroke-opacity=".55"/><text x="151" y="94.55" font-family="'Segoe UI','Helvetica Neue',Helvetica,Arial,sans-serif" font-size="13" fill="#f3e9dc" text-anchor="middle" >Spring Boot</text><rect x="217.0" y="76" width="104" height="28" rx="14.0" fill="#f6cfdc" fill-opacity=".14" stroke="#f6cfdc" stroke-opacity=".55"/><text x="269" y="94.55" font-family="'Segoe UI','Helvetica Neue',Helvetica,Arial,sans-serif" font-size="13" fill="#f3e9dc" text-anchor="middle" >JavaScript</text><rect x="331.0" y="76" width="65" height="28" rx="14.0" fill="#a9c4ec" fill-opacity=".14" stroke="#a9c4ec" stroke-opacity=".55"/><text x="364" y="94.55" font-family="'Segoe UI','Helvetica Neue',Helvetica,Arial,sans-serif" font-size="13" fill="#f3e9dc" text-anchor="middle" >React</text><rect x="28" y="116" width="57" height="28" rx="14.0" fill="#c47a9b" fill-opacity=".14" stroke="#c47a9b" stroke-opacity=".55"/><text x="57" y="134.55" font-family="'Segoe UI','Helvetica Neue',Helvetica,Arial,sans-serif" font-size="13" fill="#f3e9dc" text-anchor="middle" >HTML</text><rect x="95.2" y="116" width="49" height="28" rx="14.0" fill="#e8a3c0" fill-opacity=".14" stroke="#e8a3c0" stroke-opacity=".55"/><text x="120" y="134.55" font-family="'Segoe UI','Helvetica Neue',Helvetica,Arial,sans-serif" font-size="13" fill="#f3e9dc" text-anchor="middle" >CSS</text><rect x="154.6" y="116" width="49" height="28" rx="14.0" fill="#b9a4e6" fill-opacity=".14" stroke="#b9a4e6" stroke-opacity=".55"/><text x="179" y="134.55" font-family="'Segoe UI','Helvetica Neue',Helvetica,Arial,sans-serif" font-size="13" fill="#f3e9dc" text-anchor="middle" >C++</text><rect x="214.0" y="116" width="65" height="28" rx="14.0" fill="#f6cfdc" fill-opacity=".14" stroke="#f6cfdc" stroke-opacity=".55"/><text x="246" y="134.55" font-family="'Segoe UI','Helvetica Neue',Helvetica,Arial,sans-serif" font-size="13" fill="#f3e9dc" text-anchor="middle" >Tauri</text><rect x="289.0" y="116" width="81" height="28" rx="14.0" fill="#a9c4ec" fill-opacity=".14" stroke="#a9c4ec" stroke-opacity=".55"/><text x="329" y="134.55" font-family="'Segoe UI','Helvetica Neue',Helvetica,Arial,sans-serif" font-size="13" fill="#f3e9dc" text-anchor="middle" >Node.js</text><text x="28" y="210" font-family="'Segoe Print','Bradley Hand','Chalkboard SE','Marker Felt','Comic Sans MS','Comic Neue',cursive" font-size="16" fill="#e8a3c0" text-anchor="start" textLength="208" lengthAdjust="spacingAndGlyphs" font-style="italic">and a little bit of chaos.</text><path transform="translate(254.0 205) scale(0.9)" d="M0 8 C-12 -2 -6 -10 0 -4 C6 -10 12 -2 0 8Z" fill="none" stroke="#e8a3c0" stroke-width="1.6" stroke-linejoin="round"/><text x="460" y="38" font-family="'Segoe UI','Helvetica Neue',Helvetica,Arial,sans-serif" font-size="14" fill="#f3e9dc" text-anchor="end" opacity=".7">✦</text><path d="M330 240 Q400 230 435.0 233.0 L470 236" fill="none" stroke="#4a3358" stroke-width="3" stroke-linecap="round"/><path d="M330 240 Q400 230 435.0 233.0 L470 236" fill="none" stroke="#c47a9b" stroke-opacity=".25" stroke-width="1" stroke-linecap="round" transform="translate(-.8 -.8)"/><g transform="translate(336.9 247.3) rotate(1)"><path transform="rotate(0)" d="M0 0 C-3.4 -2.2 -3.0 -5.7 0 -5.4 C3.0 -5.7 3.4 -2.2 0 0Z" fill="#f6cfdc" opacity="0.95" stroke="#f6cfdc" stroke-opacity=".35" stroke-width=".6"/><path transform="rotate(72)" d="M0 0 C-3.4 -2.2 -3.0 -5.7 0 -5.4 C3.0 -5.7 3.4 -2.2 0 0Z" fill="#f6cfdc" opacity="0.95" stroke="#f6cfdc" stroke-opacity=".35" stroke-width=".6"/><path transform="rotate(144)" d="M0 0 C-3.4 -2.2 -3.0 -5.7 0 -5.4 C3.0 -5.7 3.4 -2.2 0 0Z" fill="#f6cfdc" opacity="0.95" stroke="#f6cfdc" stroke-opacity=".35" stroke-width=".6"/><path transform="rotate(216)" d="M0 0 C-3.4 -2.2 -3.0 -5.7 0 -5.4 C3.0 -5.7 3.4 -2.2 0 0Z" fill="#f6cfdc" opacity="0.95" stroke="#f6cfdc" stroke-opacity=".35" stroke-width=".6"/><path transform="rotate(288)" d="M0 0 C-3.4 -2.2 -3.0 -5.7 0 -5.4 C3.0 -5.7 3.4 -2.2 0 0Z" fill="#f6cfdc" opacity="0.95" stroke="#f6cfdc" stroke-opacity=".35" stroke-width=".6"/><circle r="0.9" fill="#d96a98"/><circle cx="1.5" cy="0.0" r="0.4" fill="#fff1b8"/><circle cx="0.4" cy="1.5" r="0.4" fill="#fff1b8"/><circle cx="-1.3" cy="0.8" r="0.4" fill="#fff1b8"/><circle cx="-1.1" cy="-1.0" r="0.4" fill="#fff1b8"/><circle cx="0.7" cy="-1.3" r="0.4" fill="#fff1b8"/></g><path transform="translate(338.6 237.8) rotate(82) scale(0.59)" d="M0 -6 C5 -6 7 -1 0 7 C-7 -1 -5 -6 0 -6Z" fill="#c47a9b" opacity="0.8"/><g transform="translate(405.5 251.0) rotate(24)"><path transform="rotate(0)" d="M0 0 C-3.9 -2.5 -3.5 -6.6 0 -6.3 C3.5 -6.6 3.9 -2.5 0 0Z" fill="#e8a3c0" opacity="0.95" stroke="#f6cfdc" stroke-opacity=".35" stroke-width=".6"/><path transform="rotate(72)" d="M0 0 C-3.9 -2.5 -3.5 -6.6 0 -6.3 C3.5 -6.6 3.9 -2.5 0 0Z" fill="#e8a3c0" opacity="0.95" stroke="#f6cfdc" stroke-opacity=".35" stroke-width=".6"/><path transform="rotate(144)" d="M0 0 C-3.9 -2.5 -3.5 -6.6 0 -6.3 C3.5 -6.6 3.9 -2.5 0 0Z" fill="#e8a3c0" opacity="0.95" stroke="#f6cfdc" stroke-opacity=".35" stroke-width=".6"/><path transform="rotate(216)" d="M0 0 C-3.9 -2.5 -3.5 -6.6 0 -6.3 C3.5 -6.6 3.9 -2.5 0 0Z" fill="#e8a3c0" opacity="0.95" stroke="#f6cfdc" stroke-opacity=".35" stroke-width=".6"/><path transform="rotate(288)" d="M0 0 C-3.9 -2.5 -3.5 -6.6 0 -6.3 C3.5 -6.6 3.9 -2.5 0 0Z" fill="#e8a3c0" opacity="0.95" stroke="#f6cfdc" stroke-opacity=".35" stroke-width=".6"/><circle r="1.0" fill="#d96a98"/><circle cx="1.8" cy="0.0" r="0.4" fill="#fff1b8"/><circle cx="0.5" cy="1.7" r="0.4" fill="#fff1b8"/><circle cx="-1.5" cy="0.9" r="0.4" fill="#fff1b8"/><circle cx="-1.3" cy="-1.2" r="0.4" fill="#fff1b8"/><circle cx="0.8" cy="-1.6" r="0.4" fill="#fff1b8"/></g><g transform="translate(380.6 244.0) rotate(49)"><path transform="rotate(0)" d="M0 0 C-3.2 -2.1 -2.9 -5.4 0 -5.2 C2.9 -5.4 3.2 -2.1 0 0Z" fill="#f6cfdc" opacity="0.95" stroke="#f6cfdc" stroke-opacity=".35" stroke-width=".6"/><path transform="rotate(72)" d="M0 0 C-3.2 -2.1 -2.9 -5.4 0 -5.2 C2.9 -5.4 3.2 -2.1 0 0Z" fill="#f6cfdc" opacity="0.95" stroke="#f6cfdc" stroke-opacity=".35" stroke-width=".6"/><path transform="rotate(144)" d="M0 0 C-3.2 -2.1 -2.9 -5.4 0 -5.2 C2.9 -5.4 3.2 -2.1 0 0Z" fill="#f6cfdc" opacity="0.95" stroke="#f6cfdc" stroke-opacity=".35" stroke-width=".6"/><path transform="rotate(216)" d="M0 0 C-3.2 -2.1 -2.9 -5.4 0 -5.2 C2.9 -5.4 3.2 -2.1 0 0Z" fill="#f6cfdc" opacity="0.95" stroke="#f6cfdc" stroke-opacity=".35" stroke-width=".6"/><path transform="rotate(288)" d="M0 0 C-3.2 -2.1 -2.9 -5.4 0 -5.2 C2.9 -5.4 3.2 -2.1 0 0Z" fill="#f6cfdc" opacity="0.95" stroke="#f6cfdc" stroke-opacity=".35" stroke-width=".6"/><circle r="0.8" fill="#d96a98"/><circle cx="1.5" cy="0.0" r="0.4" fill="#fff1b8"/><circle cx="0.4" cy="1.4" r="0.4" fill="#fff1b8"/><circle cx="-1.2" cy="0.7" r="0.4" fill="#fff1b8"/><circle cx="-1.1" cy="-1.0" r="0.4" fill="#fff1b8"/><circle cx="0.7" cy="-1.3" r="0.4" fill="#fff1b8"/></g><g transform="translate(451.8 254.4) rotate(48)"><path transform="rotate(0)" d="M0 0 C-5.0 -3.2 -4.4 -8.5 0 -8.1 C4.4 -8.5 5.0 -3.2 0 0Z" fill="#e8a3c0" opacity="0.95" stroke="#f6cfdc" stroke-opacity=".35" stroke-width=".6"/><path transform="rotate(72)" d="M0 0 C-5.0 -3.2 -4.4 -8.5 0 -8.1 C4.4 -8.5 5.0 -3.2 0 0Z" fill="#e8a3c0" opacity="0.95" stroke="#f6cfdc" stroke-opacity=".35" stroke-width=".6"/><path transform="rotate(144)" d="M0 0 C-5.0 -3.2 -4.4 -8.5 0 -8.1 C4.4 -8.5 5.0 -3.2 0 0Z" fill="#e8a3c0" opacity="0.95" stroke="#f6cfdc" stroke-opacity=".35" stroke-width=".6"/><path transform="rotate(216)" d="M0 0 C-5.0 -3.2 -4.4 -8.5 0 -8.1 C4.4 -8.5 5.0 -3.2 0 0Z" fill="#e8a3c0" opacity="0.95" stroke="#f6cfdc" stroke-opacity=".35" stroke-width=".6"/><path transform="rotate(288)" d="M0 0 C-5.0 -3.2 -4.4 -8.5 0 -8.1 C4.4 -8.5 5.0 -3.2 0 0Z" fill="#e8a3c0" opacity="0.95" stroke="#f6cfdc" stroke-opacity=".35" stroke-width=".6"/><circle r="1.3" fill="#d96a98"/><circle cx="2.3" cy="0.0" r="0.6" fill="#fff1b8"/><circle cx="0.6" cy="2.2" r="0.6" fill="#fff1b8"/><circle cx="-1.9" cy="1.2" r="0.6" fill="#fff1b8"/><circle cx="-1.6" cy="-1.6" r="0.6" fill="#fff1b8"/><circle cx="1.1" cy="-2.0" r="0.6" fill="#fff1b8"/></g><path transform="translate(499.2 261.0) rotate(152) scale(0.40)" d="M0 -6 C5 -6 7 -1 0 7 C-7 -1 -5 -6 0 -6Z" fill="#c47a9b" opacity="0.8"/>
</svg>
